<?xml version="1.0" standalone="no"?><!DOCTYPE svg PUBLIC "-//W3C//DTD SVG 1.1//EN" "http://www.w3.org/Graphics/SVG/1.1/DTD/svg11.dtd"><svg t="1618834313082" class="icon" viewBox="0 0 1024 1024" version="1.1" xmlns="http://www.w3.org/2000/svg" p-id="1100" xmlns:xlink="http://www.w3.org/1999/xlink" width="200" height="200"><defs><style type="text/css"></style></defs><path d="M513.9456 269.0048c-73.8304 0-133.888 60.0576-133.888 133.888s60.0576 133.888 133.888 133.888 133.888-60.0576 133.888-133.888-60.0576-133.888-133.888-133.888z m0 216.576c-45.6192 0-82.688-37.12-82.688-82.688s37.12-82.688 82.688-82.688 82.688 37.12 82.688 82.688-37.12 82.688-82.688 82.688z" fill="#d81e06" p-id="1101"></path><path d="M914.5856 766.8736c-89.1904-161.28-126.0544-223.3344-142.6432-248.2176a281.36448 281.36448 0 0 0 24.8832-115.7632c0-156.0064-126.9248-282.88-282.88-282.88S231.0656 246.8864 231.0656 402.8928c0 41.8816 9.216 81.6128 25.6 117.4016-17.1008 25.9584-54.2208 88.7296-141.5168 246.5792-4.7616 8.6528-4.1472 19.2512 1.536 27.2384s15.5136 12.032 25.2928 10.3424l128.9728-22.6816 48.5376 116.1216a25.61024 25.61024 0 0 0 23.6032 15.7184c9.1136 0 17.5616-4.864 22.1696-12.8l123.2384-213.4528c0.512-0.8704 0.8192-1.8432 1.2288-2.7648 7.9872 0.6656 16.0256 1.1264 24.1664 1.1264 8.7552 0 17.408-0.4608 25.9584-1.2288 0.4096 0.9728 0.768 1.9456 1.28 2.8672l123.2384 213.4528a25.6512 25.6512 0 0 0 22.1696 12.8c0.5632 0 1.0752 0 1.6384-0.0512a25.5488 25.5488 0 0 0 21.9648-15.6672l48.5376-116.1216 128.9728 22.6816c9.728 1.6896 19.5584-2.304 25.2928-10.3424a25.46688 25.46688 0 0 0 1.6384-27.2384z m-567.808 63.6416l-36.5056-87.296a25.6 25.6 0 0 0-28.0576-15.36l-96.256 16.896c38.5024-69.0176 77.056-136.7552 99.84-174.848 36.7616 50.0736 89.5488 87.6032 150.784 105.0112l-89.8048 155.5968z m-35.0208-314.6752a26.368 26.368 0 0 0-3.7376-8.448c-0.5632-0.8192-1.2288-1.4848-1.8944-2.2528a230.23616 230.23616 0 0 1-23.8592-102.2976c0-127.744 103.936-231.68 231.68-231.68s231.68 103.936 231.68 231.68-103.936 231.68-231.68 231.68c-86.784 0.0512-162.5088-47.872-202.1888-118.6816z m435.712 212.0192c-11.8784-2.048-23.4496 4.3008-28.0576 15.36l-36.5056 87.296-90.0608-156.0064c61.1328-17.7664 113.7152-55.6544 150.2208-105.984 22.6816 37.7856 61.696 106.3936 100.6592 176.2304l-96.256-16.896z" fill="#d81e06" p-id="1102"></path></svg>